HIERARCHY
ROOT Hips
{
	OFFSET	0.00	0.00	0.00
	CHANNELS 6 Xposition Yposition Zposition Zrotation Xrotation Yrotation
	JOINT LeftUpLeg
	{
		OFFSET	 0.126116	-0.065224	 0.014019
		CHANNELS 3 Zrotation Xrotation Yrotation
		JOINT LeftLeg
		{
			OFFSET	 0.000000	 0.569914	 0.000000
			CHANNELS 3 Zrotation Xrotation Yrotation
			JOINT LeftFoot
			{
				OFFSET	 0.000000	 0.544423	 0.000000
				CHANNELS 3 Zrotation Xrotation Yrotation
				JOINT LeftToeBase
				{
					OFFSET	 0.000000	 0.207117	 0.000000
					CHANNELS 3 Zrotation Xrotation Yrotation
					End Site
					{
						OFFSET	 0.000000	 0.207117	 0.000000
					}
				}
			}
		}
	}
	JOINT RightUpLeg
	{
		OFFSET	-0.124023	-0.065224	 0.008373
		CHANNELS 3 Zrotation Xrotation Yrotation
		JOINT RightLeg
		{
			OFFSET	 0.000000	 0.570047	 0.000000
			CHANNELS 3 Zrotation Xrotation Yrotation
			JOINT RightFoot
			{
				OFFSET	 0.000000	 0.544354	 0.000000
				CHANNELS 3 Zrotation Xrotation Yrotation
				JOINT RightToeBase
				{
					OFFSET	 0.000000	 0.207540	 0.000000
					CHANNELS 3 Zrotation Xrotation Yrotation
					End Site
					{
						OFFSET	 0.000000	 0.207540	 0.000000
					}
				}
			}
		}
	}
	JOINT Spine
	{
		OFFSET	 0.000184	 0.117403	 0.007763
		CHANNELS 3 Zrotation Xrotation Yrotation
		JOINT Spine1
		{
			OFFSET	 0.000000	 0.137269	 0.000000
			CHANNELS 3 Zrotation Xrotation Yrotation
			JOINT Spine2
			{
				OFFSET	 0.000000	 0.156879	 0.000000
				CHANNELS 3 Zrotation Xrotation Yrotation
				JOINT LeftShoulder
				{
					OFFSET	 0.080501	 0.160143	 0.002496
					CHANNELS 3 Zrotation Xrotation Yrotation
					JOINT LeftArm
					{
						OFFSET	 0.000000	 0.164363	 0.000000
						CHANNELS 3 Zrotation Xrotation Yrotation
						JOINT LeftForeArm
						{
							OFFSET	 0.000000	 0.364576	 0.000000
							CHANNELS 3 Zrotation Xrotation Yrotation
							JOINT LeftHand
							{
								OFFSET	 0.000000	 0.360812	 0.000000
								CHANNELS 3 Zrotation Xrotation Yrotation
								JOINT LeftHandIndex1
								{
									OFFSET	 0.000000	 0.086006	 0.000000
									CHANNELS 3 Zrotation Xrotation Yrotation
									JOINT LeftHandIndex2
									{
										OFFSET	 0.000000	 0.047237	 0.000000
										CHANNELS 3 Zrotation Xrotation Yrotation
										JOINT LeftHandIndex3
										{
											OFFSET	-0.004284	 0.038165	 0.000551
											CHANNELS 3 Zrotation Xrotation Yrotation
											End Site
											{
												OFFSET	-0.004284	 0.038165	 0.000551
											}
										}
									}
								}
							}
						}
					}
				}
				JOINT Neck
				{
					OFFSET	 0.000000	 0.176489	 0.000000
					CHANNELS 3 Zrotation Xrotation Yrotation
					JOINT Head
					{
						OFFSET	 0.000000	 0.077941	 0.001747
						CHANNELS 3 Zrotation Xrotation Yrotation
						End Site
						{
							OFFSET	 0.000000	 0.077941	 0.001747
						}
					}
				}
				JOINT RightShoulder
				{
					OFFSET	-0.080363	 0.159706	-0.000306
					CHANNELS 3 Zrotation Xrotation Yrotation
					JOINT RightArm
					{
						OFFSET	 0.000000	 0.164196	 0.000000
						CHANNELS 3 Zrotation Xrotation Yrotation
						JOINT RightForeArm
						{
							OFFSET	 0.000000	 0.365611	 0.000000
							CHANNELS 3 Zrotation Xrotation Yrotation
							JOINT RightHand
							{
								OFFSET	 0.000000	 0.360648	 0.000000
								CHANNELS 3 Zrotation Xrotation Yrotation
								JOINT RightHandIndex1
								{
									OFFSET	 0.000000	 0.069977	 0.000000
									CHANNELS 3 Zrotation Xrotation Yrotation
									JOINT RightHandIndex2
									{
										OFFSET	 0.000000	 0.052305	 0.000000
										CHANNELS 3 Zrotation Xrotation Yrotation
										JOINT RightHandIndex3
										{
											OFFSET	 0.009002	 0.042196	 0.000782
											CHANNELS 3 Zrotation Xrotation Yrotation
											End Site
											{
												OFFSET	 0.009002	 0.042196	 0.000782
											}
										}
									}
								}
							}
						}
					}
				}
			}
		}
	}
}
MOTION
Frames:    9
Frame Time: 0.03333334
-0.121999	 1.271772	-0.130287	 10.900270	-2.374490	-164.278800	-169.121600	 25.253630	 9.336029	 8.924926	-30.230760	 9.836913	-2.796818	 64.062890	-6.147902	 1.735629	 33.955490	-2.951308	 176.462700	 8.370859	 33.780460	-3.112937	-35.631420	 7.028800	 5.996466	 60.295550	-3.045041	-4.100051	 54.140040	 4.510017	-5.507129	 5.583523	 15.465110	-6.439257	 8.532857	 5.500373	 3.530248	-8.018802	-5.573767	-100.894600	 3.825379	 93.487080	 54.494450	 41.156330	-12.911820	 43.139630	-2.026425	 0.717276	 20.922690	-25.667920	-4.057703	 3.685798	 55.179180	-2.084924	-8.765480	 61.413320	 9.068031	 6.614423	 34.431590	 0.048591	 3.525996	-11.056620	-3.160464	 6.262660	-7.589149	-9.086329	 92.626400	 24.358410	-87.057200	-25.881280	 23.258540	-5.678469	-57.685060	-1.904457	-0.990313	 29.011310	-40.927970	-8.640988	-4.624274	-13.788460	-0.584947	 11.967390	 3.259987	-0.804451	-8.131809	-6.001316	 0.707338
-0.124579	 1.247068	-0.125891	 11.625870	-4.480520	-160.367900	-171.441900	 30.700070	 12.285680	 10.586500	-34.608870	 12.547670	 3.651157	 69.444070	-11.505450	 1.388322	 29.699390	-2.782212	 177.126000	 10.884870	 31.301420	-3.314849	-37.350850	 5.739715	 7.241857	 67.793100	-0.727864	-3.244895	 48.375150	 3.864708	-6.175255	 6.001260	 19.920250	-7.226245	 11.382490	 7.433361	 3.624159	-10.362410	-6.827749	-101.702800	 3.373189	 93.358690	 49.804280	 39.173690	-6.961017	 32.374050	-1.587088	 0.376892	 30.812910	-18.388720	 17.630350	 3.776753	 55.280460	-2.149831	-8.827951	 61.671800	 9.151978	 6.610853	 34.355640	 0.048994	 3.525937	-12.113080	-3.713355	 5.988557	-9.110614	-12.052300	 100.687100	 27.984220	-97.496190	-63.595990	 27.974010	 6.866257	-5.120250	-0.201169	 0.049581	 14.066720	-30.411550	-7.487137	-4.768693	 2.038206	-0.643127	 12.518240	 22.621440	-5.092686	-8.514787	 14.904230	-0.639452
-0.132081	 1.230002	-0.120491	 10.974030	-5.876420	-159.820500	-173.857900	 33.475360	 12.319100	 11.880550	-37.714400	 14.219340	 10.153190	 73.020610	-16.834970	 1.172727	 26.833930	-2.663912	 177.078500	 10.684630	 30.712370	-3.101682	-35.533410	 7.285016	 10.266270	 74.968700	-3.980966	-2.312181	 40.199640	 3.243717	-6.291268	 6.174964	 21.898530	-7.403917	 11.526730	 7.919960	 3.707718	-10.772300	-6.892694	-102.779800	 2.818528	 93.163870	 42.761620	 42.960660	-1.104997	 18.443360	-0.937902	 0.068371	 35.249540	-11.741110	 39.077670	 3.857724	 55.141450	-2.208936	-8.818981	 61.635070	 9.139962	 6.611375	 34.366830	 0.048948	 3.851907	-12.305760	-3.922991	 5.444798	-9.771155	-12.794010	 102.526500	 28.244690	-97.877590	-45.252260	 38.592020	-4.050628	-28.115920	-1.062237	-0.207409	 21.485100	-28.602780	-19.261110	-4.890410	 13.085570	-0.625584	 14.065210	 36.381250	-8.817236	-8.484976	 29.594640	-1.612808
-0.136275	 1.231708	-0.116994	 9.449759	-6.189737	-160.804400	-175.133100	 32.732090	 10.853080	 11.501850	-36.832390	 13.995630	 12.091440	 72.798330	-17.993670	 1.122555	 26.152770	-2.644185	 175.942200	 9.261637	 31.893350	-2.815210	-32.953950	 10.310160	 19.780650	 77.331690	-15.558180	-1.830875	 35.037830	 2.969767	-6.029809	 6.366428	 21.066600	-6.862319	 10.322260	 7.464643	 3.622455	-9.883012	-6.410147	-103.925500	 2.550123	 93.007590	 27.676060	 48.899940	 6.715057	 18.341850	-0.932893	 0.066751	 27.889060	-6.965177	 47.983010	 3.901642	 55.101710	-2.241611	-8.779109	 61.470290	 9.086407	 6.616950	 34.485440	 0.048338	 4.114231	-11.688720	-3.814090	 4.285355	-9.418977	-12.030150	 103.947200	 26.882370	-97.903140	-27.563810	 42.793790	-13.857400	-31.829150	-1.188722	-0.280413	 6.422779	-25.501130	-37.375580	-4.893872	 13.028210	-0.623386	 14.087250	 36.516140	-8.859292	-8.484384	 29.643940	-1.616309
-0.128779	 1.238699	-0.116012	 6.734834	-4.592737	-166.986600	-173.707800	 28.447380	 4.293815	 10.868020	-35.306670	 12.834600	 10.463910	 72.489170	-16.127380	 1.148517	 26.506210	-2.654320	 174.620700	 7.926824	 26.403660	-2.770493	-32.536900	 10.934050	 22.078740	 76.579250	-18.409740	-1.833790	 35.071190	 2.971315	-4.599113	 6.554317	 18.114320	-5.749545	 8.759736	 6.508154	 3.478671	-8.252377	-5.108009	-104.341100	 2.403600	 92.791980	 5.284598	 54.979000	 16.964230	 25.445280	-1.273665	 0.203651	 17.116850	-3.441893	 38.087870	 3.874433	 55.244960	-2.224306	-8.726153	 61.247820	 9.014952	 6.627198	 34.702840	 0.047168	 4.122254	-10.138910	-3.220974	 2.586820	-8.651376	-9.175841	 106.490900	 24.900850	-97.987960	-5.490222	 44.576180	-20.098360	-31.922490	-1.191806	-0.282328	-11.504940	-19.521350	-50.386180	-4.785398	 12.491130	-0.581675	 14.036770	 36.205560	-8.762686	-8.487975	 29.340950	-1.594812
-0.103804	 1.243003	-0.112710	 4.385633	-3.273859	-173.109300	-171.874100	 24.806820	-2.155082	 10.157770	-33.521910	 12.033050	 8.219843	 72.029610	-14.421530	 1.149095	 26.514110	-2.654545	 174.678000	 6.605458	 21.461980	-2.587315	-30.787490	 11.083590	 25.227010	 77.643480	-21.759490	-1.562981	 31.857450	 2.834463	-3.289459	 6.424098	 14.278500	-4.682034	 7.010507	 5.560139	 3.137664	-6.498596	-3.565455	-105.104700	 2.983522	 92.754430	-4.428607	 54.928790	 27.017050	 25.794440	-1.289922	 0.211527	 10.241260	 0.925717	 38.100160	 3.315920	 50.532680	-1.774828	-7.808902	 56.603250	 7.707845	 6.456609	 30.998040	 0.060516	 4.099261	-9.165436	-2.539124	 1.610604	-7.502547	-5.653119	 109.127300	 22.405350	-97.908390	 8.472580	 42.965100	-27.189960	-32.111680	-1.198160	-0.286265	 2.121308	-19.577100	-36.625700	-3.830290	 9.202839	-0.050839	 13.260800	 30.600430	-7.133063	-8.533599	 22.480130	-1.127496
-0.070953	 1.247241	-0.104575	 2.451425	-1.987054	-178.667600	-169.945200	 21.041600	-7.788560	 9.120781	-30.770120	 10.521670	 3.617841	 70.811510	-10.688070	 1.149436	 26.518800	-2.654679	 175.171100	 5.543051	 16.938410	-2.389636	-28.825180	 11.090130	 26.928830	 78.254750	-23.924200	-1.354970	 29.233160	 2.738954	-2.065892	 6.214293	 10.007740	-2.686340	 5.870022	 4.002936	 2.363552	-5.171769	-2.153985	-105.976300	 3.570869	 92.731230	-9.822421	 53.568120	 33.034420	 28.313180	-1.405924	 0.270790	 3.287857	 5.126179	 34.186730	 2.597937	 43.116190	-1.247775	-6.862139	 49.120230	 6.113513	 6.194826	 25.010060	 0.055462	 4.049821	-8.336531	-1.891885	 0.714953	-6.588589	-2.381501	 111.732000	 20.013700	-97.712720	 14.802480	 40.253260	-27.937630	-27.558000	-1.042903	-0.197211	 11.284480	-12.759050	-27.018370	-2.966180	 6.286867	 0.469082	 12.751900	 25.593400	-5.822484	-8.524026	 16.447740	-0.737475
-0.026426	 1.250910	-0.085334	 1.549434	-1.117970	 177.117500	-166.891800	 17.722650	-12.203860	 7.706939	-26.735560	 5.445454	-10.540440	 67.726260	 2.564523	 1.150653	 26.535410	-2.655163	 176.981400	 6.114401	 12.501680	-2.317224	-28.087150	 10.237080	 25.692290	 77.723270	-21.253110	-1.341865	 29.063500	 2.733228	-0.200710	 5.934715	 5.803984	-1.478317	 5.558547	 2.828287	 2.062076	-5.064764	-1.116539	-107.639600	 4.317873	 92.736850	-2.303350	 48.783330	 26.399500	 30.523820	-1.505484	 0.326947	 6.183250	 2.213733	 17.923190	 1.022464	 19.746770	-0.407769	-5.865719	 24.918800	 2.758917	 5.389460	 5.701985	-0.144978	 3.902072	-7.945222	-1.223156	-0.056051	-6.416013	 0.521896	 115.357600	 17.021840	-97.386050	 19.640130	 43.758610	-26.369230	-28.039560	-1.059664	-0.206068	 14.989980	 4.839658	-25.818870	-2.468272	 4.546782	 0.826229	 12.515260	 22.579010	-5.082487	-8.502324	 13.291790	-0.537471
-0.011125	 1.252777	-0.076227	 1.370048	-0.676053	 175.242200	-165.952100	 16.130220	-13.915420	 7.090437	-24.874630	 3.291171	-15.040820	 65.912150	 6.857718	 1.151789	 26.550840	-2.655613	 177.650300	 6.512055	 10.801210	-2.331725	-28.235790	 9.590001	 22.478860	 77.763830	-18.244860	-1.335599	 28.982050	 2.730504	 0.577086	 5.921113	 4.134453	-0.789706	 5.403404	 2.191275	 1.886678	-4.993780	-0.734088	-108.626900	 4.693835	 92.739480	 0.950530	 47.339030	 22.819450	 32.167310	-1.578103	 0.371155	 6.577599	 4.246321	 12.611990	 0.733775	 13.863140	-0.333997	-5.878887	 18.865600	 2.088273	 5.178886	 0.808634	-0.237709	 3.770550	-7.839468	-0.887259	-0.378407	-6.287397	 1.622069	 116.967600	 15.555640	-97.167530	 18.838450	 43.666320	-23.809450	-26.705850	-1.013104	-0.181877	 15.061260	 11.875320	-26.227260	-2.379872	 4.271765	 0.898348	 12.482180	 22.102300	-4.968244	-8.497801	 12.784190	-0.505435
